# xmcd
#
# Track frame offsets: 
#        150
#        13021
#        29375
#        43092
#        58152
#        71985
#        89234
#        105374
#        116940
#        137678
#        157345
#        172537
#
# Disc length: 2543 seconds
#
# Revision: 3
# Processed by: cddbd v1.5.2PL0 Copyright (c) Steve Scherf et al.
# Submitted via: ExactAudioCopy v1.0b3
#
DISCID=ac09ed0c
DTITLE=Rivers Dick zi - Mister D.
DYEAR=2011
DGENRE=Chanson Française
TTITLE0=Reverse
TTITLE1=Bloody Movie
TTITLE2=Automatic
TTITLE3=C'est Pour Ton Bien
TTITLE4=La Ballade De L'Echographie
TTITLE5=Histoire De Vie
TTITLE6=Désormais
TTITLE7=Demain (The Say)
TTITLE8=Johnny
TTITLE9=Le Coeur Dans Le Cendrier
TTITLE10=La Fièvre
TTITLE11=Dur D'Etre Dieu
EXTD=
EXTT0=
EXTT1=
EXTT2=
EXTT3=
EXTT4=
EXTT5=
EXTT6=
EXTT7=
EXTT8=
EXTT9=
EXTT10=
EXTT11=
PLAYORDER=
